<?xml version="1.0" encoding="UTF-8"?>
<svg version="1.1" viewBox="0 0 2048 600" width="1280" height="1280" xmlns="http://www.w3.org/2000/svg">
<path transform="translate(0)" d="m0 0h2048v600h-2048z" fill="#FEFEFE"/>
<path transform="translate(567,19)" d="m0 0h62l215 1 7 23 22 80 17 61 20 72 17 60 6 21 1 2h104l20-1 9-4 6-7-1-8-7-11-11-12-7-8-11-12-11-14-10-13-13-20-10-18-9-19-8-24-3-13-2-18v-18l3-22 6-21 5-12 6-11 9-11 8-7 10-6 8-4 17-4 9-1 111-1h91l37 1v137h-138l-10 2-8 6-2 4 1 7 7 11 12 14 8 8 9 11 7 8 12 16 12 18 12 21 9 19 9 27 4 20 2 20v9l-2 17-4 16-6 16-9 14-9 10-12 9-15 8-21 7-6 1-237 1-92-1-1-1-4-31-7-28-6-21v-2l-113 1-3 8-8 27-12 41-2 6h-134l-1-2 10-35 16-59 22-80 17-62 19-70 3-11h-38l-9 42-15 73-25 122-15 73-3 9h-121l-3-8-38-152-7-29-3-3v8l-13 63-19 92-6 27-1 2-7 1-114-1-4-9-17-63-21-77-20-73-21-77-5-18v-2h-53l-25-1-1-77v-52l1-7h172l6 21 8 31 11 42 17 65 10 36h1l7-30 28-121 9-41 2-3h111l3 8 13 48 24 91 12 44 1 5h2l1-12 7-36 22-124 4-23 1-1z"/>
<path transform="translate(1519,19)" d="m0 0h63l5 1v146l-1 2h2l2-5 10-17 18-30 16-28 13-22 19-32 8-13 2-1h121l-2 5-10 15-13 21-16 26-15 24-26 42-15 24-13 21-15 24-12 19-3 5 1 5 13 19 17 25 13 19 14 20 3 4 3 1h196l4 1v136l-1 1h-211l-25-1-5-5-12-17-11-16-13-18-11-16-24-34-20-28-1 134-1 1h-82l-40-1v-455l1-1z"/>
<path transform="translate(3,7)" d="m0 0 195 1 2 2 15 58 15 54 8 30 2 5 2-3 12-54 13-54 8-36 1-2h132l2 1 12 45 20 72 6 21 2 2 4-16 9-51 8-43 5-30 1-1h378l16 58 15 52 40 144 14 51 4 12v2l108-1 7-1-2-6-9-10-11-12-9-11-14-18-13-18-11-17-9-16-10-21-7-21-6-27-1-7v-32l5-25 6-18 8-16 7-10 11-12 12-9 12-6 17-4 8-1h67l194 1-1 161-131 1h-25l6 9 11 12 9 11 9 10 13 17 13 18 13 22 12 25 8 24 4 18 3 24v25l-3 20-6 20-7 14-9 12-9 10-10 8-16 9-19 7-14 3-9 1-183 1h-119l-33-1-1-1-4-31-5-29-5-19v-2h-94l-8 24-14 48-4 9-4 1h-277l-11-1-3-5-17-69-11-44-6-26-2-3-6 35-12 54-11 52-2 6-4 1h-123l-14-1-4-8-17-62-19-70-23-84-15-55-10-37-1-2-81-1-1-162zm564 12-79 1-2 6-14 80-15 84-4 21v5h-2l-4-16-15-56-27-102-6-21-1-1h-111l-2 3-14 63-17 73-10 42-3 14-2-3-11-41-19-73-13-49-7-27-1-2h-172l-1 7v52l1 77 25 1h53l4 16 17 63 23 84 21 77 16 59 5 17 2 3 114 1 7-1 4-15 18-86 14-69 3-14v-8l3 3 32 128 12 50 3 10 1 1h121l3-9 30-147 24-116 8-38 2-9h38l-23 85-25 91-22 80-14 51-3 11 1 1h134l9-29 12-42 3-10 1-1 113-1 4 16 8 30 4 27 1 9 1 1 92 1 237-1 16-4 15-6 14-8 13-11 8-10 6-10 7-19 4-19 1-11-1-22-4-23-6-20-8-20-12-23-12-19-14-19-9-11-9-10-7-8-11-12-9-13-2-5 1-6 4-5 7-4 8-1h138v-137l-37-1h-91l-111 1-14 2-14 4-13 7-10 8-7 8-7 11-6 13-5 16-4 20-1 10v18l3 23 7 24 9 21 11 21 18 27 11 14 11 13 9 10 12 13 10 14 2 5-1 7-8 7-6 2-20 1h-104l-6-19-15-54-20-71-24-87-20-72-5-16-215-1z" fill="#FBF050"/>
<path transform="translate(1810,7)" d="m0 0h10l-1 5-26 39-16 26-14 23-15 24-16 26-12 19-26 42-15 24-7 10 1 5 14 20 22 33 13 19 3 4 11 1 165 1 32 1v160l-2 1h-237l-15-1-6-4-8-10-10-15-13-19-24-34-15-20-3-6-1 60v48l-5 1h-100l-43-1-1-98v-383h50l99 1v46l1 63 8-13 17-29 14-23 13-22 10-18 4-5zm-291 12-54 1-1 1v455l40 1h82l1-1 1-134 8 11 13 18 11 16 12 17 14 20 10 14 14 20 12 17 2 1 25 1h211l1-1v-136l-4-1h-196l-3-1-13-18-34-50-14-21 1-5 14-22 15-24 16-26 12-19 16-26 15-24 16-26 13-21 15-24 7-10v-2h-121l-4 4-10 17-16 27-17 29-15 26-15 25-10 17-1 3h-2l1-2v-146l-5-1z" fill="#F9EE4F"/>
<path transform="translate(1275,243)" d="m0 0h148v115h-149l-1-34v-80z"/>
<path transform="translate(750,122)" d="m0 0 3 1 9 34 16 57 17 61 7 24-1 1h-106l11-35 20-66 16-54 7-22z" fill="#FBF050"/>
<path transform="translate(1259,229)" d="m0 0h119l56 1v139h-173l-1-1-1-29zm16 14-2 1v80l1 34h149v-115z" fill="#FBF050"/>
<path transform="translate(750,167)" d="m0 0h2l13 51 16 56 4 12v2h-61l-10-1 3-11 21-67 10-34z" fill="#FEFEFE"/>
<path transform="translate(592,171)" d="m0 0h10l-1 7-14 47-5 10-4 2 1-11 10-49z" fill="#FEFEFE"/>
</svg>
